<?xml version="1.0" encoding="utf-8"?>
<!-- Generator: Adobe Illustrator 26.0.2, SVG Export Plug-In . SVG Version: 6.00 Build 0)  -->
<svg version="1.1" id="레이어_1" xmlns="http://www.w3.org/2000/svg" xmlns:xlink="http://www.w3.org/1999/xlink" x="0px"
	 y="0px" viewBox="0 0 94 94" style="enable-background:new 0 0 94 94;" xml:space="preserve">
<style type="text/css">
	.st0{fill:#515964;}
</style>
<g>
	<polygon class="st0" points="25.38,38.16 25.38,60.15 38.71,50.44 	"/>
	<path class="st0" d="M64.29,64.74c0.7,0,1.35-0.21,1.89-0.56L51.36,53.39c-1.36,1.2-3.04,1.8-4.72,1.8c-1.44,0-2.88-0.45-4.11-1.32
		l-14.71,10.7c0.33,0.11,0.69,0.17,1.06,0.17H64.29z"/>
	<path class="st0" d="M48.04,49.63l19.06-17c-0.64-0.86-1.66-1.43-2.82-1.43H28.88c-0.98,0-1.87,0.41-2.51,1.06L45.2,49.61
		C46.01,50.35,47.23,50.36,48.04,49.63z"/>
	<polygon class="st0" points="67.79,59.15 67.79,38.74 55.19,49.98 	"/>
	<path class="st0" d="M47,0C21.04,0,0,21.04,0,47s21.04,47,47,47s47-21.04,47-47S72.96,0,47,0z M20.36,61.24V34.71
		c0-4.69,3.82-8.51,8.51-8.51h35.41c4.7,0,8.51,3.82,8.51,8.51v26.53c0,4.69-3.82,8.51-8.51,8.51H28.88
		C24.18,69.75,20.36,65.93,20.36,61.24z"/>
</g>
</svg>
