<?xml version="1.0" encoding="utf-8"?>
<!-- Generator: Adobe Illustrator 26.0.2, SVG Export Plug-In . SVG Version: 6.00 Build 0)  -->
<svg version="1.1" id="레이어_1" xmlns="http://www.w3.org/2000/svg" xmlns:xlink="http://www.w3.org/1999/xlink" x="0px"
	 y="0px" viewBox="0 0 94 94" style="enable-background:new 0 0 94 94;" xml:space="preserve">
<style type="text/css">
	.st0{fill:#979CA3;}
</style>
<g>
	<path class="st0" d="M47,0C21.04,0,0,21.04,0,47s21.04,47,47,47c25.96,0,47-21.04,47-47S72.96,0,47,0z M40.83,77.51v-7.4V52.94
		h-9.75v-11.1h9.75v-8.46c0-9.63,5.73-14.94,14.51-14.94c4.2,0,8.6,0.75,8.6,0.75v9.45h-4.84c-4.77,0-6.26,2.96-6.26,6v7.2h10.65
		l-1.7,11.1h-8.95v17.18v7.4H40.83z"/>
</g>
</svg>
