<?xml version="1.0" encoding="utf-8"?>
<!-- Generator: Adobe Illustrator 26.0.2, SVG Export Plug-In . SVG Version: 6.00 Build 0)  -->
<svg version="1.1" id="레이어_1" xmlns="http://www.w3.org/2000/svg" xmlns:xlink="http://www.w3.org/1999/xlink" x="0px"
	 y="0px" viewBox="0 0 94 94" style="enable-background:new 0 0 94 94;" xml:space="preserve">
<style type="text/css">
	.st0{fill:#515964;}
</style>
<g>
	<path class="st0" d="M47,0C21.04,0,0,21.04,0,47c0,25.96,21.04,47,47,47s47-21.04,47-47C94,21.04,72.96,0,47,0z M20.76,73.2
		L37.29,20.8l7.17,0L27.92,73.2H20.76z M66.09,73.21l-0.38-1.18c0,0-1.16-3.63-4-12.34c-0.39-1.24-0.91-2.43-1.54-3.56
		c-1.55,1.95-3.57,3.49-5.87,4.46c-4.61,1.9-9.28,1.67-12.76-0.67c-2.69-1.8-4.3-4.64-4.3-7.66c0.02-2.63,1.14-5.14,3.1-6.9
		c2.44-2.28,5.98-3.41,9.7-3.15c2.27,0.16,4.49,0.71,6.57,1.63c0.06-0.05,0.07-0.06,0.13-0.11c-1.61-5.23-7.05-22.95-7.05-22.95
		h7.15c0,0,4.81,15.7,6.41,20.94c0.71,2.38,0.81,4.91,0.28,7.34c2.11,2.5,3.7,5.39,4.68,8.51c2.84,8.73,4.01,12.37,4.01,12.37
		l1.04,3.25L66.09,73.21z"/>
	<path class="st0" d="M48.96,49.15c-1.6,0-3.06,0.49-3.99,1.36c-0.56,0.48-0.89,1.17-0.92,1.9c0,0.71,0.47,1.45,1.26,1.98
		c0.79,0.53,2.85,1.49,6.36,0.03c1.56-0.7,2.88-1.85,3.8-3.29c-1.78-1.14-3.82-1.82-5.93-1.96C49.34,49.15,49.15,49.15,48.96,49.15z
		"/>
</g>
</svg>
