<?xml version="1.0" encoding="utf-8"?>
<!-- Generator: Adobe Illustrator 26.0.2, SVG Export Plug-In . SVG Version: 6.00 Build 0)  -->
<svg version="1.1" id="레이어_1" xmlns="http://www.w3.org/2000/svg" xmlns:xlink="http://www.w3.org/1999/xlink" x="0px"
	 y="0px" viewBox="0 0 94 94" style="enable-background:new 0 0 94 94;" xml:space="preserve">
<style type="text/css">
	.st0{fill:#979CA3;}
</style>
<g>
	<circle class="st0" cx="47.16" cy="47.87" r="7.24"/>
	<path class="st0" d="M57.32,69.08c6.09,0,11.05-4.96,11.05-11.05V37.72c0-6.09-4.96-11.05-11.05-11.05H37.01
		c-6.09,0-11.05,4.96-11.05,11.05v20.31c0,6.09,4.96,11.05,11.05,11.05H57.32z M60.41,32.09c1.36,0,2.47,1.11,2.47,2.47
		c0,1.36-1.11,2.47-2.47,2.47c-1.36,0-2.47-1.11-2.47-2.47C57.94,33.2,59.05,32.09,60.41,32.09z M47.16,35.62
		c6.75,0,12.25,5.49,12.25,12.25s-5.49,12.25-12.25,12.25s-12.25-5.49-12.25-12.25S40.41,35.62,47.16,35.62z"/>
	<path class="st0" d="M47,0C21.04,0,0,21.04,0,47s21.04,47,47,47s47-21.04,47-47S72.96,0,47,0z M20.94,58.03V37.72
		c0-8.86,7.21-16.07,16.07-16.07h20.31c8.86,0,16.07,7.21,16.07,16.07v20.31c0,8.86-7.21,16.07-16.07,16.07H37.01
		C28.15,74.1,20.94,66.89,20.94,58.03z"/>
</g>
</svg>
