<?xml version="1.0" encoding="utf-8"?>
<!-- Generator: Adobe Illustrator 26.0.2, SVG Export Plug-In . SVG Version: 6.00 Build 0)  -->
<svg version="1.1" id="레이어_1" xmlns="http://www.w3.org/2000/svg" xmlns:xlink="http://www.w3.org/1999/xlink" x="0px"
	 y="0px" viewBox="0 0 94 94" style="enable-background:new 0 0 94 94;" xml:space="preserve">
<style type="text/css">
	.st0{fill:#979CA3;}
</style>
<g>
	<path class="st0" d="M47,0C21.04,0,0,21.04,0,47s21.04,47,47,47s47-21.04,47-47S72.96,0,47,0z M55.14,48.38
		c0-2.12,1.1-3.17,2.81-3.17c1.53,0,2.53,0.92,2.53,2.64v7.45h3.3v-7.86c0-1.66-0.46-2.94-1.38-3.89c-0.89-0.95-2.05-1.41-3.45-1.41
		c-1.74,0-3.02,0.59-3.81,1.79v-6.85h-3.3v18.21h3.3V48.38z M40.05,55.65c4.49,0,7.87-2.84,8.75-7.17h-3.6
		c-0.63,2.25-2.71,3.71-5.15,3.71c-3.19,0-5.85-2.45-5.85-5.85c0-3.39,2.34-5.9,5.85-5.9c2.48,0,4.64,1.49,5.18,3.89h3.59
		c-0.84-4.41-4.23-7.31-8.77-7.31c-5.22,0-9.36,3.89-9.36,9.31C30.69,51.75,34.83,55.65,40.05,55.65z M32.84,64.28
		c-5.38-4.08-9.3-8.55-9.3-17.93c0-12.69,11.12-22.98,24.84-22.98c13.72,0,24.84,10.29,24.84,22.98c0,12.69-11.12,22.98-24.84,22.98
		c-1.67,0-3.3-0.15-4.88-0.45l-0.2-0.09l-9.42,7c-0.42,0.31-1.01,0.01-1.01-0.51v-11L32.84,64.28z"/>
</g>
</svg>
